<svg width="33" height="33" viewBox="0 0 33 33" fill="none" xmlns="http://www.w3.org/2000/svg">
<g clip-path="url(#clip0_516_54)">
<path d="M0.264258 2.46211C0.0902344 2.2043 0 1.89492 0 1.58555C0 0.708984 0.708984 0 1.58555 0H8.63027C9.35215 0 10.0289 0.380273 10.3963 0.999023L14.8113 8.35313C11.7047 8.74629 8.92676 10.1965 6.85781 12.3428L0.264258 2.46211ZM32.7293 2.46211L26.1422 12.3428C24.0732 10.1965 21.2953 8.74629 18.1887 8.35313L22.6037 0.999023C22.9775 0.380273 23.6479 0 24.3697 0H31.4145C32.291 0 33 0.708984 33 1.58555C33 1.89492 32.9098 2.2043 32.7357 2.46211H32.7293ZM5.15625 21.6562C5.15625 18.6477 6.35139 15.7624 8.47876 13.635C10.6061 11.5076 13.4915 10.3125 16.5 10.3125C19.5085 10.3125 22.3939 11.5076 24.5212 13.635C26.6486 15.7624 27.8438 18.6477 27.8438 21.6562C27.8438 24.6648 26.6486 27.5501 24.5212 29.6775C22.3939 31.8049 19.5085 33 16.5 33C13.4915 33 10.6061 31.8049 8.47876 29.6775C6.35139 27.5501 5.15625 24.6648 5.15625 21.6562ZM17.0414 15.5396C16.8223 15.0885 16.1842 15.0885 15.9586 15.5396L14.5148 18.4658C14.4246 18.6463 14.257 18.7688 14.0637 18.7945L10.8281 19.265C10.3318 19.3359 10.1385 19.9418 10.493 20.2963L12.8326 22.5779C12.9744 22.7197 13.0389 22.9131 13.0066 23.1129L12.4523 26.3291C12.3686 26.8189 12.8842 27.1992 13.3289 26.9672L16.2164 25.4461C16.3904 25.3559 16.6031 25.3559 16.7771 25.4461L19.6646 26.9672C20.1094 27.1992 20.625 26.8254 20.5412 26.3291L19.9869 23.1129C19.9547 22.9195 20.0191 22.7197 20.1609 22.5779L22.5006 20.2963C22.8615 19.9482 22.6617 19.3424 22.1654 19.265L18.9363 18.7945C18.743 18.7688 18.5689 18.6398 18.4852 18.4658L17.0414 15.5396Z" fill="black"/>
</g>
<defs>
<clipPath id="clip0_516_54">
<rect width="33" height="33" fill="white"/>
</clipPath>
</defs>
</svg>
