<svg width="35" height="35" viewBox="0 0 35 35" fill="none" xmlns="http://www.w3.org/2000/svg">
<path d="M10.3999 0.436283C11.0766 1.05422 11.1312 2.10263 10.5229 2.78999L5.6015 8.34447C5.30075 8.68468 4.87697 8.88603 4.42584 8.89298C3.97471 8.89992 3.54409 8.72634 3.22283 8.40696L0.481887 5.62972C-0.153794 4.97707 -0.153794 3.92172 0.481887 3.26907C1.11757 2.61642 2.16336 2.61642 2.79904 3.26907L4.30964 4.80349L8.07587 0.554315C8.68421 -0.133052 9.71634 -0.188597 10.393 0.429339L10.3999 0.436283ZM10.3999 11.5452C11.0766 12.1632 11.1312 13.2116 10.5229 13.899L5.6015 19.4534C5.30075 19.7936 4.87697 19.995 4.42584 20.0019C3.97471 20.0089 3.54409 19.8353 3.22283 19.5159L0.481887 16.7387C-0.160629 16.086 -0.160629 15.0307 0.481887 14.385C1.1244 13.7393 2.16336 13.7323 2.79904 14.385L4.30964 15.9194L8.07587 11.6702C8.68421 10.9829 9.71634 10.9273 10.393 11.5452H10.3999ZM15.3144 4.44939C15.3144 3.22047 16.2919 2.2276 17.5017 2.2276H32.8127C34.0226 2.2276 35 3.22047 35 4.44939C35 5.67832 34.0226 6.67119 32.8127 6.67119H17.5017C16.2919 6.67119 15.3144 5.67832 15.3144 4.44939ZM15.3144 15.5584C15.3144 14.3294 16.2919 13.3366 17.5017 13.3366H32.8127C34.0226 13.3366 35 14.3294 35 15.5584C35 16.7873 34.0226 17.7801 32.8127 17.7801H17.5017C16.2919 17.7801 15.3144 16.7873 15.3144 15.5584ZM10.9398 26.6673C10.9398 25.4384 11.9173 24.4455 13.1271 24.4455H32.8127C34.0226 24.4455 35 25.4384 35 26.6673C35 27.8962 34.0226 28.8891 32.8127 28.8891H13.1271C11.9173 28.8891 10.9398 27.8962 10.9398 26.6673ZM3.28435 23.3346C4.1545 23.3346 4.98902 23.6857 5.60431 24.3107C6.21961 24.9357 6.56528 25.7834 6.56528 26.6673C6.56528 27.5512 6.21961 28.3989 5.60431 29.0239C4.98902 29.6489 4.1545 30 3.28435 30C2.41419 30 1.57967 29.6489 0.96438 29.0239C0.349086 28.3989 0.00341762 27.5512 0.00341762 26.6673C0.00341762 25.7834 0.349086 24.9357 0.96438 24.3107C1.57967 23.6857 2.41419 23.3346 3.28435 23.3346Z" fill="black"/>
</svg>
