<svg width="29" height="29" viewBox="0 0 29 29" fill="none" xmlns="http://www.w3.org/2000/svg">
<g clip-path="url(#clip0_516_44)">
<path d="M2.71875 14.5C2.71875 17.6246 3.95999 20.6212 6.1694 22.8306C8.37881 25.04 11.3754 26.2812 14.5 26.2812C17.6246 26.2812 20.6212 25.04 22.8306 22.8306C25.04 20.6212 26.2812 17.6246 26.2812 14.5C26.2812 11.3754 25.04 8.37881 22.8306 6.1694C20.6212 3.95999 17.6246 2.71875 14.5 2.71875C11.3754 2.71875 8.37881 3.95999 6.1694 6.1694C3.95999 8.37881 2.71875 11.3754 2.71875 14.5ZM29 14.5C29 18.3456 27.4723 22.0338 24.753 24.753C22.0338 27.4723 18.3456 29 14.5 29C10.6544 29 6.96623 27.4723 4.24695 24.753C1.52767 22.0338 0 18.3456 0 14.5C0 10.6544 1.52767 6.96623 4.24695 4.24695C6.96623 1.52767 10.6544 0 14.5 0C18.3456 0 22.0338 1.52767 24.753 4.24695C27.4723 6.96623 29 10.6544 29 14.5ZM15.8594 6.79688V14.5C15.8594 14.9531 15.6328 15.3779 15.2533 15.6328L9.81582 19.2578C9.19277 19.677 8.34883 19.507 7.92969 18.8783C7.51055 18.2496 7.68047 17.4113 8.30918 16.9922L13.1406 13.775V6.79688C13.1406 6.04355 13.7467 5.4375 14.5 5.4375C15.2533 5.4375 15.8594 6.04355 15.8594 6.79688Z" fill="black"/>
</g>
<defs>
<clipPath id="clip0_516_44">
<rect width="29" height="29" fill="white" transform="matrix(-1 0 0 1 29 0)"/>
</clipPath>
</defs>
</svg>
