<svg width="24" height="24" viewBox="0 0 24 24" fill="none" xmlns="http://www.w3.org/2000/svg">
<g clip-path="url(#clip0_516_255)">
<path d="M12.0001 0.0498047C5.37268 0.0498047 0 5.42249 0 12.0499C0 17.9939 4.32626 22.9165 9.9987 23.8697V14.5534H7.10393V11.2009H9.9987V8.72881C9.9987 5.86053 11.7506 4.29748 14.3096 4.29748C15.5353 4.29748 16.5886 4.38881 16.8944 4.42903V7.42715L15.1194 7.42801C13.728 7.42801 13.4598 8.08908 13.4598 9.05949V11.1991H16.7798L16.3468 14.5517H13.4598V23.9499C19.397 23.2273 24 18.1792 24 12.0464C24 5.42249 18.6273 0.0498047 12.0001 0.0498047Z" fill="#6D6D6D"/>
</g>
<defs>
<clipPath id="clip0_516_255">
<rect width="24" height="24" fill="white"/>
</clipPath>
</defs>
</svg>
