<svg width="24" height="24" viewBox="0 0 24 24" fill="none" xmlns="http://www.w3.org/2000/svg">
<path d="M12 0C5.37281 0 0 5.19925 0 11.6129C0 18.0266 5.37281 23.2258 12 23.2258C18.6272 23.2258 24 18.0266 24 11.6129C24 5.19925 18.6272 0 12 0ZM13.3808 15.4702C12.2708 15.4702 11.2268 14.8895 10.8694 14.2301C10.8694 14.2301 10.2722 16.5218 10.1468 16.964C9.70165 18.5274 8.39227 20.0913 8.29037 20.2194C8.21942 20.3085 8.06253 20.2807 8.04632 20.1624C8.01858 19.9633 7.68417 17.9909 8.0775 16.3823C8.27417 15.5745 9.39916 10.9616 9.39916 10.9616C9.39916 10.9616 9.07163 10.3265 9.07163 9.3875C9.07163 7.91317 9.95454 6.81259 11.054 6.81259C11.9887 6.81259 12.44 7.4919 12.44 8.30617C12.44 9.21572 11.8419 10.5758 11.5333 11.836C11.2752 12.8912 12.0795 13.7521 13.1549 13.7521C15.1027 13.7521 16.4135 11.3313 16.4135 8.46275C16.4135 6.28297 14.8972 4.65063 12.137 4.65063C9.01958 4.65063 7.07552 6.90098 7.07552 9.41506C7.07552 10.2814 7.34019 10.8932 7.75415 11.3658C7.94394 11.5832 7.97095 11.6706 7.90195 11.9201C7.85211 12.1033 7.73991 12.5438 7.69228 12.718C7.62378 12.9703 7.41312 13.0602 7.17717 12.9672C5.74183 12.4001 5.07253 10.878 5.07253 9.16701C5.07253 6.34118 7.5349 2.95271 12.4191 2.95271C16.3438 2.95271 18.927 5.70084 18.927 8.65141C18.9272 12.5548 16.6848 15.4702 13.3808 15.4702Z" fill="#6D6D6D"/>
</svg>
